# File created by Blade
# Date/Time:  Tue Jan 27 18:01:49 2015
# Frame Rate: 120.000 fps
#------------------------------------------------------
:FULLY-SPECIFIED
:DEGREES
2246
root -1.817787 31.931654 -6.136178 7.840202 21.069248 4.297362
Spine -6.359668 -8.127201 -5.374697
Head -8.922424 -29.529893 4.769481
LeftShoulder -12.013415 14.700131 9.176400
LeftArm 25.674660 42.143491 -70.363923
LeftForeArm -1.611045 -0.000000 11.081768
LeftHand -11.707457 -0.000000 -7.390496
LeftHandThumb1 -26.253704 0.000000 33.147579
RightShoulder -9.806737 23.209041 -50.123172
RightArm 33.889506 16.547404 14.218600
RightForeArm 8.203803 0.000000 81.217292
RightHand -10.442893 -0.000000 11.998875
RightHandThumb1 -24.326973 -0.000000 -32.862282
LeftUpLeg -3.973868 -8.175774 0.500910
LeftLeg 0.326685 -0.000000 -0.000000
LeftFoot -13.053494 11.422320 -24.357263
LeftToeBase 8.721798 -0.000000 -0.000000
RightUpLeg 2.684959 -11.970694 -2.186165
RightLeg -3.850593 -0.000000 0.000000
RightFoot -16.788621 -19.190049 10.965693
RightToeBase 5.398523 -0.000000 -0.000000
2247
root -1.813449 31.932600 -6.139496 7.829007 21.046472 4.310223
Spine -6.315753 -8.124052 -5.352023
Head -8.964619 -29.271867 4.865694
LeftShoulder -11.972188 14.689206 9.210230
LeftArm 25.747073 42.178235 -70.332924
LeftForeArm -1.611893 0.000000 11.059344
LeftHand -11.599977 -0.000000 -7.111594
LeftHandThumb1 -26.253704 0.000000 33.147579
RightShoulder -9.766978 23.319769 -50.126354
RightArm 33.816382 17.031505 14.693809
RightForeArm 8.382932 0.000000 81.697879
RightHand -10.391414 -0.000000 11.927731
RightHandThumb1 -24.326973 -0.000000 -32.862282
LeftUpLeg -3.972897 -8.149477 0.473131
LeftLeg 0.355808 -0.000000 -0.000000
LeftFoot -13.053134 11.420895 -24.349918
LeftToeBase 8.737178 -0.000000 -0.000000
RightUpLeg 2.673703 -11.982922 -2.211261
RightLeg -3.807687 -0.000000 0.000000
RightFoot -16.801792 -19.173381 10.960630
RightToeBase 5.348043 -0.000000 -0.000000
2248
root -1.809395 31.933801 -6.143054 7.812999 21.026271 4.303216
Spine -6.272679 -8.110247 -5.317984
Head -8.996492 -29.044534 4.994533
LeftShoulder -11.969511 14.679565 9.236606
LeftArm 25.878697 42.243782 -70.255964
LeftForeArm -1.626328 -0.000000 11.038420
LeftHand -11.605396 -0.000000 -7.141840
LeftHandThumb1 -26.253704 0.000000 33.147579
RightShoulder -9.756325 23.440359 -50.104604
RightArm 33.818332 17.593040 15.213521
RightForeArm 8.656479 -0.000000 82.141319
RightHand -10.555218 0.000000 11.957086
RightHandThumb1 -24.326973 -0.000000 -32.862282
LeftUpLeg -3.973452 -8.137005 0.465147
LeftLeg 0.384678 -0.000000 -0.000000
LeftFoot -13.048917 11.430797 -24.308437
LeftToeBase 8.663346 -0.000000 -0.000000
RightUpLeg 2.661170 -12.010439 -2.219740
RightLeg -3.768607 -0.000000 0.000000
RightFoot -16.797541 -19.120387 10.952150
RightToeBase 5.362289 -0.000000 -0.000000
2249
root -1.806296 31.935136 -6.146190 7.809977 20.996760 4.301604
Spine -6.249720 -8.075528 -5.298627
Head -9.010373 -28.842227 5.129389
LeftShoulder -11.933892 14.658318 9.277030
LeftArm 25.921177 42.254942 -70.239780
LeftForeArm -1.623597 -0.000000 11.083402
LeftHand -11.611768 -0.000000 -7.149197
LeftHandThumb1 -26.253704 0.000000 33.147579
RightShoulder -9.733080 23.534538 -50.072346
RightArm 33.799531 18.220108 15.809613
RightForeArm 8.640608 -0.000000 82.596201
RightHand -10.442529 0.000000 11.861432
RightHandThumb1 -24.326973 -0.000000 -32.862282
LeftUpLeg -3.982648 -8.121686 0.452621
LeftLeg 0.408741 -0.000000 -0.000000
LeftFoot -13.071742 11.457128 -24.310696
LeftToeBase 8.708999 -0.000000 -0.000000
RightUpLeg 2.639612 -12.048587 -2.230125
RightLeg -3.735324 -0.000000 0.000000
RightFoot -16.789282 -19.059607 10.943850
RightToeBase 5.374280 -0.000000 -0.000000
2250
root -1.803794 31.936580 -6.148989 7.812068 20.959543 4.287017
Spine -6.238966 -8.016098 -5.265876
Head -9.032786 -28.645127 5.287280
LeftShoulder -11.902094 14.655329 9.303240
LeftArm 25.979431 42.226722 -70.218946
LeftForeArm -1.601563 -0.000000 11.142548
LeftHand -11.584029 -0.000000 -7.173871
LeftHandThumb1 -26.253704 0.000000 33.147579
RightShoulder -9.706413 23.578278 -50.077129
RightArm 33.732278 18.940399 16.496138
RightForeArm 8.891069 -0.000000 83.132692
RightHand -10.179740 -0.000000 11.922352
RightHandThumb1 -24.326973 -0.000000 -32.862282
LeftUpLeg -4.003102 -8.096894 0.456571
LeftLeg 0.439686 -0.000000 -0.000000
LeftFoot -13.092558 11.452658 -24.319822
LeftToeBase 8.739912 -0.000000 -0.000000
RightUpLeg 2.603578 -12.079143 -2.225915
RightLeg -3.696691 -0.000000 0.000000
RightFoot -16.775464 -18.988536 10.938093
RightToeBase 5.361363 -0.000000 -0.000000
